<svg xmlns="http://www.w3.org/2000/svg" xmlns:xlink="http://www.w3.org/1999/xlink" width="1280" height="720" version="1.2" viewBox="0 0 1280 720">
  <defs>
    <linearGradient id="a">
      <stop offset="0" stop-color="#00ff4d" stop-opacity=".47"/>
      <stop offset="1" stop-color="#006eff" stop-opacity=".47"/>
    </linearGradient>
    <linearGradient xlink:href="#a" id="b" x1="-2284" x2="911.9" y1="-2411.1" y2="787" gradientUnits="userSpaceOnUse"/>
  </defs>
  <g fill="url(#b)" stroke="#000" stroke-opacity=".5" stroke-width="2.4" transform="translate(541.2 424.4) scale(.08371)">
    <!--path fill="#000" d="M-2523.1-2561.6h3583.7V1022h-3583.7z"/-->
    <path d="M-810.6-1139.8c-115.8 0-209.6 92.3-209.6 206.2v261.8c0 113.9 93.8 206.2 209.6 206.2h254.1c115.7 0 209.6-92.3 209.6-206.2v-261.8c0-113.9-93.9-206.2-209.6-206.2zm120.6 138.2c89.4 0 125.7 77.4 125.7 154.5l-.2 14 18 45a668.2 668.6 0 0 1 13.4 37.8c17 54.9 11.5 77.6 7.4 78.1-9 1.1-35.2-41.3-35.2-41.3 0 24.5-12.6 56.6-40 79.7a112 112 0 0 1 30.9 14c7.2 5.4 6.3 10.8 5 13-5.7 9.7-98.2 6.2-125 3.2-26.7 3-119.2 6.5-125-3.2-1.3-2.2-2.2-7.6 5-13 8.1-6 20.7-10.8 30.9-14-27.4-23-40-55.1-40-79.7 0 0-26.1 42.4-35.1 41.3-4.2-.5-9.8-23.2 7.3-78a651.5 651.8 0 0 1 13.4-38l18-45-.2-14c0-77 36.3-154.4 125.7-154.4zm613.5-1357.9a47 47 0 1 1 94 0 47 47 0 0 1-94 0zm-218 3a47 47 0 1 1 94 0 47 47 0 0 1-94 0zm-330-3a47 47 0 1 1 94 0 47 47 0 0 1-94 0zm-114 0a47 47 0 1 1 94 0 47 47 0 0 1-94 0zm-111 0a47 47 0 1 1 94 0 47 47 0 0 1-94 0zm-332 4a47 47 0 1 1 94 0 47 47 0 0 1-94 0zm-108-1a47 47 0 1 1 94 0 47 47 0 0 1-94 0zm-108 0a47 47 0 1 1 94 0 47 47 0 0 1-94 0zm994 106a47 47 0 1 1 94 0 47 47 0 0 1-94 0zm-107 0a47 47 0 1 1 94 0 47 47 0 0 1-94 0zm-336 0a47 47 0 1 1 94 0 47 47 0 0 1-94 0zm-332 4a47 47 0 1 1 94 0 47 47 0 0 1-94 0zm-108-1a47 47 0 1 1 94 0 47 47 0 0 1-94 0zm-108 0a47 47 0 1 1 94 0 47 47 0 0 1-94 0zm1322 107a47 47 0 1 1 94 0 47 47 0 0 1-94 0zm-115 0a47 47 0 1 1 94 0 47 47 0 0 1-94 0zm-103 3a47 47 0 1 1 94 0 47 47 0 0 1-94 0zm-219-3a47 47 0 1 1 94 0 47 47 0 0 1-94 0zm-551 0a47 47 0 1 1 94 0 47 47 0 0 1-94 0zm-117 4a47 47 0 1 1 94 0 47 47 0 0 1-94 0zm-108-1c0-26 20.8-47 46.5-47s46.5 21 46.5 47-20.8 47-46.5 47-46.5-21-46.5-47zm1098 108.5c0-25.7 21-46.5 47-46.5s47 20.8 47 46.5-21 46.5-47 46.5-47-20.8-47-46.5zm-434 0c0-25.7 21-46.5 47-46.5s47 20.8 47 46.5-21 46.5-47 46.5-47-20.8-47-46.5zm-113 0c0-25.7 21-46.5 47-46.5s47 20.8 47 46.5-21 46.5-47 46.5-47-20.8-47-46.5zm-326 0c0-25.7 21-46.5 47-46.5s47 20.8 47 46.5-21 46.5-47 46.5-47-20.8-47-46.5zm-225 2.5c0-26 20.8-47 46.5-47s46.5 21 46.5 47-20.8 47-46.5 47-46.5-21-46.5-47zm-109 0a47 47 0 1 1 94 0 47 47 0 0 1-94 0zm1104 112a47 47 0 1 1 94 0 47 47 0 0 1-94 0zm-219-3.5c0-25.7 21-46.5 47-46.5s47 20.8 47 46.5-21 46.5-47 46.5-47-20.8-47-46.5zm-225 0c0-25.7 21-46.5 47-46.5s47 20.8 47 46.5-21 46.5-47 46.5-47-20.8-47-46.5zm-326 0c0-25.7 21-46.5 47-46.5s47 20.8 47 46.5-21 46.5-47 46.5-47-20.8-47-46.5zm-117 4c0-25.7 21-46.5 47-46.5s47 20.8 47 46.5-21 46.5-47 46.5-47-20.8-47-46.5zm-108-1a46.5 46.5 0 1 1 93 0 46.5 46.5 0 0 1-93 0zm1099 110.5a47 47 0 1 1 94 0 47 47 0 0 1-94 0zm-322 0a47 47 0 1 1 94 0 47 47 0 0 1-94 0zm-112 0a47 47 0 1 1 94 0 47 47 0 0 1-94 0zm-224 0a47 47 0 1 1 94 0 47 47 0 0 1-94 0zm-215 0a47 47 0 1 1 94 0 47 47 0 0 1-94 0zm988 108a47 47 0 1 1 94 0 47 47 0 0 1-94 0zm-218 3a47 47 0 1 1 94 0 47 47 0 0 1-94 0zm-219-3a47 47 0 1 1 94 0 47 47 0 0 1-94 0zm-225 0a47 47 0 1 1 94 0 47 47 0 0 1-94 0zm-224 0a47 47 0 1 1 94 0 47 47 0 0 1-94 0zm-219 4a47 47 0 1 1 94 0 47 47 0 0 1-94 0zm-217-1a47 47 0 1 1 94 0 47 47 0 0 1-94 0zM703.5 730c0-25.7 21-46.5 47-46.5s47 20.8 47 46.5-21 46.5-47 46.5-47-20.8-47-46.5zm-224 0c0-25.7 21-46.5 47-46.5s47 20.8 47 46.5-21 46.5-47 46.5-47-20.8-47-46.5zm-220 0c0-25.7 21-46.5 47-46.5s47 20.8 47 46.5-21 46.5-47 46.5-47-20.8-47-46.5zm-111 0a46.5 46.5 0 1 1 93 0 46.5 46.5 0 0 1-93 0zm-108 0c0-25.7 21-46.5 47-46.5s47 20.8 47 46.5-21 46.5-47 46.5-47-20.8-47-46.5zm-112 0c0-25.7 21-46.5 47-46.5s47 20.8 47 46.5-21 46.5-47 46.5-47-20.8-47-46.5zm-115 0c0-25.7 21-46.5 47-46.5s47 20.8 47 46.5-21 46.5-47 46.5-47-20.8-47-46.5zm-103 3.5a47 47 0 1 1 94 0 47 47 0 0 1-94 0zm-219-3.5c0-25.7 21-46.5 47-46.5s47 20.8 47 46.5-21 46.5-47 46.5-47-20.8-47-46.5zm-112 0c0-25.7 21-46.5 47-46.5s47 20.8 47 46.5-21 46.5-47 46.5-47-20.8-47-46.5zm-113 0c0-25.7 21-46.5 47-46.5s47 20.8 47 46.5-21 46.5-47 46.5-47-20.8-47-46.5zm-111 0c0-25.7 21-46.5 47-46.5s47 20.8 47 46.5-21 46.5-47 46.5-47-20.8-47-46.5zm-215 0c0-25.7 21-46.5 47-46.5s47 20.8 47 46.5-21 46.5-47 46.5-47-20.8-47-46.5zm-225 2.5a47 47 0 1 1 94 0 47 47 0 0 1-94 0zm-109 0a47 47 0 1 1 94 0 47 47 0 0 1-94 0zm2097-114a47 47 0 1 1 94 0 47 47 0 0 1-94 0zm-224 0a47 47 0 1 1 94 0 47 47 0 0 1-94 0zm-112 0a47 47 0 1 1 94 0 47 47 0 0 1-94 0zm-108 0a47 47 0 1 1 94 0 47 47 0 0 1-94 0zm-111 0c0-26 20.8-47 46.5-47s46.5 21 46.5 47-20.8 47-46.5 47-46.5-21-46.5-47zm-220 0a47 47 0 1 1 94 0 47 47 0 0 1-94 0zm-218 3a47 47 0 1 1 94 0 47 47 0 0 1-94 0zm-331-3a47 47 0 1 1 94 0 47 47 0 0 1-94 0zm-224 0a47 47 0 1 1 94 0 47 47 0 0 1-94 0zm-113 0a47 47 0 1 1 94 0 47 47 0 0 1-94 0zm-219 4a47 47 0 1 1 94 0 47 47 0 0 1-94 0zm-108-1a47 47 0 1 1 94 0 47 47 0 0 1-94 0zm2099-114a47 47 0 1 1 94 0 47 47 0 0 1-94 0zm-223 0a47 47 0 1 1 94 0 47 47 0 0 1-94 0zm-332 0a47 47 0 1 1 94 0 47 47 0 0 1-94 0zm-331 0a47 47 0 1 1 94 0 47 47 0 0 1-94 0zm-218 3a47 47 0 1 1 94 0 47 47 0 0 1-94 0zm-444-3a47 47 0 1 1 94 0 47 47 0 0 1-94 0zm-111 0a47 47 0 1 1 94 0 47 47 0 0 1-94 0zm-332 4a47 47 0 1 1 94 0 47 47 0 0 1-94 0zm-108-1a47 47 0 1 1 94 0 47 47 0 0 1-94 0zm-109 0a47 47 0 1 1 94 0 47 47 0 0 1-94 0zm2097-110a47 47 0 1 1 94 0 47 47 0 0 1-94 0zm-224 0a47 47 0 1 1 94 0 47 47 0 0 1-94 0zm-112 0a47 47 0 1 1 94 0 47 47 0 0 1-94 0zm-108 0a47 47 0 1 1 94 0 47 47 0 0 1-94 0zm-219 0a47 47 0 1 1 94 0 47 47 0 0 1-94 0zm-112 0a47 47 0 1 1 94 0 47 47 0 0 1-94 0zm-115 0a47 47 0 1 1 94 0 47 47 0 0 1-94 0zm-215 0a47 47 0 1 1 94 0 47 47 0 0 1-94 0zm-443 0a47 47 0 1 1 94 0 47 47 0 0 1-94 0zm-332 4a47 47 0 1 1 94 0 47 47 0 0 1-94 0zm-108-1a47 47 0 1 1 94 0 47 47 0 0 1-94 0zm-109 0a47 47 0 1 1 94 0 47 47 0 0 1-94 0zm2208-116a47 47 0 1 1 94 0 47 47 0 0 1-94 0zm-223 0a47 47 0 1 1 94 0 47 47 0 0 1-94 0zm-224 0a47 47 0 1 1 94 0 47 47 0 0 1-94 0zm-108 0a47 47 0 1 1 94 0 47 47 0 0 1-94 0zm-111 0c0-26 20.8-47 46.5-47s46.5 21 46.5 47-20.8 47-46.5 47-46.5-21-46.5-47zm-108 0a47 47 0 1 1 94 0 47 47 0 0 1-94 0zm-112 0a47 47 0 1 1 94 0 47 47 0 0 1-94 0zm-886 0a47 47 0 1 1 94 0 47 47 0 0 1-94 0zm-102 0a47 47 0 1 1 94 0 47 47 0 0 1-94 0zm-117 4a47 47 0 1 1 94 0 47 47 0 0 1-94 0zm1656-118a47 47 0 1 1 94 0 47 47 0 0 1-94 0zm-112 0a47 47 0 1 1 94 0 47 47 0 0 1-94 0zm-439 0a47 47 0 1 1 94 0 47 47 0 0 1-94 0zm-115 0a47 47 0 1 1 94 0 47 47 0 0 1-94 0zm-434 0a47 47 0 1 1 94 0 47 47 0 0 1-94 0zm-113 0a47 47 0 1 1 94 0 47 47 0 0 1-94 0zm-111 0a47 47 0 1 1 94 0 47 47 0 0 1-94 0zm-113 0a47 47 0 1 1 94 0 47 47 0 0 1-94 0zm-102 0a47 47 0 1 1 94 0 47 47 0 0 1-94 0zm-334 3a47 47 0 1 1 94 0 47 47 0 0 1-94 0zm2097-108a47 47 0 1 1 94 0 47 47 0 0 1-94 0zm-224 0a47 47 0 1 1 94 0 47 47 0 0 1-94 0zm-112 0a47 47 0 1 1 94 0 47 47 0 0 1-94 0zm-219 0c0-26 20.8-47 46.5-47s46.5 21 46.5 47-20.8 47-46.5 47-46.5-21-46.5-47zm-220 0a47 47 0 1 1 94 0 47 47 0 0 1-94 0zm-115 0a47 47 0 1 1 94 0 47 47 0 0 1-94 0zm-103 3a47 47 0 1 1 94 0 47 47 0 0 1-94 0zm-331-3a47 47 0 1 1 94 0 47 47 0 0 1-94 0zm-113 0a47 47 0 1 1 94 0 47 47 0 0 1-94 0zm-326 0a47 47 0 1 1 94 0 47 47 0 0 1-94 0zm-225 3a47 47 0 1 1 94 0 47 47 0 0 1-94 0zm-109 0a47 47 0 1 1 94 0 47 47 0 0 1-94 0zm2208-119a47 47 0 1 1 94 0 47 47 0 0 1-94 0zm-111 0a47 47 0 1 1 94 0 47 47 0 0 1-94 0zm-112 0a47 47 0 1 1 94 0 47 47 0 0 1-94 0zm-112 0a47 47 0 1 1 94 0 47 47 0 0 1-94 0zm-112 0a47 47 0 1 1 94 0 47 47 0 0 1-94 0zm-439 0a47 47 0 1 1 94 0 47 47 0 0 1-94 0zm-218 4a47 47 0 1 1 94 0 47 47 0 0 1-94 0zm-112-4a47 47 0 1 1 94 0 47 47 0 0 1-94 0zm-107 0a47 47 0 1 1 94 0 47 47 0 0 1-94 0zm-112 0a47 47 0 1 1 94 0 47 47 0 0 1-94 0zm-337 0a47 47 0 1 1 94 0 47 47 0 0 1-94 0zm-102 0a47 47 0 1 1 94 0 47 47 0 0 1-94 0zm-334 3a47 47 0 1 1 94 0 47 47 0 0 1-94 0zm2209-1322a47 47 0 1 1 94 0 47 47 0 0 1-94 0zm-1 552a47 47 0 1 1 94 0 47 47 0 0 1-94 0zm0-117a47 47 0 1 1 94 0 47 47 0 0 1-94 0zm2-216a47 47 0 1 1 94 0 47 47 0 0 1-94 0zm-2-329a47 47 0 1 1 94 0 47 47 0 0 1-94 0zm-110 992a47 47 0 1 1 94 0 47 47 0 0 1-94 0zm3-110a47 47 0 1 1 94 0 47 47 0 0 1-94 0zm-4-114.5c0-25.7 21-46.5 47-46.5s47 20.8 47 46.5-21 46.5-47 46.5-47-20.8-47-46.5zm0-105.5a47 47 0 1 1 94 0 47 47 0 0 1-94 0zm0-117a47 47 0 1 1 94 0 47 47 0 0 1-94 0zm0-327a47 47 0 1 1 94 0 47 47 0 0 1-94 0zm0-218a47 47 0 1 1 94 0 47 47 0 0 1-94 0zm-112 1322a47 47 0 1 1 94 0 47 47 0 0 1-94 0zm0-111a47 47 0 1 1 94 0 47 47 0 0 1-94 0zm0-109a47 47 0 1 1 94 0 47 47 0 0 1-94 0zm1-110c0-26 20.8-47 46.5-47s46.5 21 46.5 47-20.8 47-46.5 47-46.5-21-46.5-47zm-1-330a47 47 0 1 1 94 0 47 47 0 0 1-94 0zm0-117a47 47 0 1 1 94 0 47 47 0 0 1-94 0zm0-109a47 47 0 1 1 94 0 47 47 0 0 1-94 0zm0-218a47 47 0 1 1 94 0 47 47 0 0 1-94 0zm-112 1104a47 47 0 1 1 94 0 47 47 0 0 1-94 0zm0-330a47 47 0 1 1 94 0 47 47 0 0 1-94 0zm3-110a47 47 0 1 1 94 0 47 47 0 0 1-94 0zm-3-446a47 47 0 1 1 94 0 47 47 0 0 1-94 0zm0-436a47 47 0 1 1 94 0 47 47 0 0 1-94 0zm-112 110a47 47 0 1 1 94 0 47 47 0 0 1-94 0zm0 1212a47 47 0 1 1 94 0 47 47 0 0 1-94 0zm0-111a47 47 0 1 1 94 0 47 47 0 0 1-94 0zm0-109a47 47 0 1 1 94 0 47 47 0 0 1-94 0zm3-220a47 47 0 1 1 94 0 47 47 0 0 1-94 0zm-3-220a47 47 0 1 1 94 0 47 47 0 0 1-94 0zm-107-552a47 47 0 1 1 94 0 47 47 0 0 1-94 0zm-1 1212a47 47 0 1 1 94 0 47 47 0 0 1-94 0zm0-220a47 47 0 1 1 94 0 47 47 0 0 1-94 0zm4-220a47 47 0 1 1 94 0 47 47 0 0 1-94 0zm-4-114.5c0-25.7 21-46.5 47-46.5s47 20.8 47 46.5-21 46.5-47 46.5-47-20.8-47-46.5zm0-331.5a47 47 0 1 1 94 0 47 47 0 0 1-94 0zm-111-326a47 47 0 1 1 94 0 47 47 0 0 1-94 0zm0 1212c0-26 20.8-47 46.5-47s46.5 21 46.5 47-20.8 47-46.5 47-46.5-21-46.5-47zm0-111c0-26 20.8-47 46.5-47s46.5 21 46.5 47-20.8 47-46.5 47-46.5-21-46.5-47zm0-443.5a46.5 46.5 0 1 1 93 0 46.5 46.5 0 0 1-93 0zm0-222.5c0-26 20.8-47 46.5-47s46.5 21 46.5 47-20.8 47-46.5 47-46.5-21-46.5-47zm1-216a47 47 0 1 1 94 0 47 47 0 0 1-94 0zm-1-329c0-26 20.8-47 46.5-47s46.5 21 46.5 47-20.8 47-46.5 47-46.5-21-46.5-47zm-108 1322a47 47 0 1 1 94 0 47 47 0 0 1-94 0zm0-111a47 47 0 1 1 94 0 47 47 0 0 1-94 0zm0-109a47 47 0 1 1 94 0 47 47 0 0 1-94 0zm4-220a47 47 0 1 1 94 0 47 47 0 0 1-94 0zm-4-114.5c0-25.7 21-46.5 47-46.5s47 20.8 47 46.5-21 46.5-47 46.5-47-20.8-47-46.5zm0-105.5a47 47 0 1 1 94 0 47 47 0 0 1-94 0zm0-226a47 47 0 1 1 94 0 47 47 0 0 1-94 0zm2-107a47 47 0 1 1 94 0 47 47 0 0 1-94 0zm-114-437a47 47 0 1 1 94 0 47 47 0 0 1-94 0zm0 1430a47 47 0 1 1 94 0 47 47 0 0 1-94 0zm0-220a47 47 0 1 1 94 0 47 47 0 0 1-94 0zm1-110a47 47 0 1 1 94 0 47 47 0 0 1-94 0zm-1-330a47 47 0 1 1 94 0 47 47 0 0 1-94 0zm0-117a47 47 0 1 1 94 0 47 47 0 0 1-94 0zm2-216a47 47 0 1 1 94 0 47 47 0 0 1-94 0zm-2-329a47 47 0 1 1 94 0 47 47 0 0 1-94 0zm-115-108a47 47 0 1 1 94 0 47 47 0 0 1-94 0zm1 218a47 47 0 1 1 94 0 47 47 0 0 1-94 0zm-1 1101a47 47 0 1 1 94 0 47 47 0 0 1-94 0zm0-549a47 47 0 1 1 94 0 47 47 0 0 1-94 0zm0-117a47 47 0 1 1 94 0 47 47 0 0 1-94 0zm0-109a47 47 0 1 1 94 0 47 47 0 0 1-94 0zm0-436a47 47 0 1 1 94 0 47 47 0 0 1-94 0zm-102 113a47 47 0 1 1 94 0 47 47 0 0 1-94 0zm-1 1212.5c0-25.7 21-46.5 47-46.5s47 20.8 47 46.5-21 46.5-47 46.5-47-20.8-47-46.5zm0-219.5a47 47 0 1 1 94 0 47 47 0 0 1-94 0zm1-111a47 47 0 1 1 94 0 47 47 0 0 1-94 0zm-1-330a47 47 0 1 1 94 0 47 47 0 0 1-94 0zm0-443a47 47 0 1 1 94 0 47 47 0 0 1-94 0zm0-218a47 47 0 1 1 94 0 47 47 0 0 1-94 0zm-112-112a47 47 0 1 1 94 0 47 47 0 0 1-94 0zm0 1319a47 47 0 1 1 94 0 47 47 0 0 1-94 0zm0-109a47 47 0 1 1 94 0 47 47 0 0 1-94 0zm0-884a47 47 0 1 1 94 0 47 47 0 0 1-94 0zm0-218a47 47 0 1 1 94 0 47 47 0 0 1-94 0zm-107-108a47 47 0 1 1 94 0 47 47 0 0 1-94 0zm0 1430a47 47 0 1 1 94 0 47 47 0 0 1-94 0zm0-220a47 47 0 1 1 94 0 47 47 0 0 1-94 0zm0-884a47 47 0 1 1 94 0 47 47 0 0 1-94 0zm-112-326a47 47 0 1 1 94 0 47 47 0 0 1-94 0zm1 218a47 47 0 1 1 94 0 47 47 0 0 1-94 0zm-1 992a47 47 0 1 1 94 0 47 47 0 0 1-94 0zm0-1102a47 47 0 1 1 94 0 47 47 0 0 1-94 0zm-112 110a47 47 0 1 1 94 0 47 47 0 0 1-94 0zm-1 1212a47 47 0 1 1 94 0 47 47 0 0 1-94 0zm0-111a47 47 0 1 1 94 0 47 47 0 0 1-94 0zm0-109a47 47 0 1 1 94 0 47 47 0 0 1-94 0zm-110-992a47 47 0 1 1 94 0 47 47 0 0 1-94 0zm-1 1212a47 47 0 1 1 94 0 47 47 0 0 1-94 0zm0-111a47 47 0 1 1 94 0 47 47 0 0 1-94 0zm0-109a47 47 0 1 1 94 0 47 47 0 0 1-94 0zm0-884a47 47 0 1 1 94 0 47 47 0 0 1-94 0zm0-218a47 47 0 1 1 94 0 47 47 0 0 1-94 0zm-113-108a47 47 0 1 1 94 0 47 47 0 0 1-94 0zm0 1430a47 47 0 1 1 94 0 47 47 0 0 1-94 0zm0-1104a47 47 0 1 1 94 0 47 47 0 0 1-94 0zm0-218a47 47 0 1 1 94 0 47 47 0 0 1-94 0zm-102-108a47 47 0 1 1 94 0 47 47 0 0 1-94 0zm0 1430a47 47 0 1 1 94 0 47 47 0 0 1-94 0zm0-1104a47 47 0 1 1 94 0 47 47 0 0 1-94 0zm-117 997a47 47 0 1 1 94 0 47 47 0 0 1-94 0zm0-109a47 47 0 1 1 94 0 47 47 0 0 1-94 0zm1-110a47 47 0 1 1 94 0 47 47 0 0 1-94 0zm-1-224.5c0-25.7 21-46.5 47-46.5s47 20.8 47 46.5-21 46.5-47 46.5-47-20.8-47-46.5zm0-222.5a47 47 0 1 1 94 0 47 47 0 0 1-94 0zm0-109a47 47 0 1 1 94 0 47 47 0 0 1-94 0zm2-107c0-26 20.8-47 46.5-47s46.5 21 46.5 47-20.8 47-46.5 47-46.5-21-46.5-47zm-2-111a47 47 0 1 1 94 0 47 47 0 0 1-94 0zm0-218a47 47 0 1 1 94 0 47 47 0 0 1-94 0zm-108-109a47 47 0 1 1 94 0 47 47 0 0 1-94 0zm0 218a47 47 0 1 1 94 0 47 47 0 0 1-94 0zm0 1212a47 47 0 1 1 94 0 47 47 0 0 1-94 0zm0-660a47 47 0 1 1 94 0 47 47 0 0 1-94 0zm1-333a47 47 0 1 1 94 0 47 47 0 0 1-94 0zm-110-437a47 47 0 1 1 94 0 47 47 0 0 1-94 0zm1 218a47 47 0 1 1 94 0 47 47 0 0 1-94 0zm-1 992a47 47 0 1 1 94 0 47 47 0 0 1-94 0zm4-220a47 47 0 1 1 94 0 47 47 0 0 1-94 0zm-4-114.5c0-25.7 21-46.5 47-46.5s47 20.8 47 46.5-21 46.5-47 46.5-47-20.8-47-46.5zm0-331.5a47 47 0 1 1 94 0 47 47 0 0 1-94 0zm2-107a47 47 0 1 1 94 0 47 47 0 0 1-94 0zm-2-111a47 47 0 1 1 94 0 47 47 0 0 1-94 0zm-107-108a47 47 0 1 1 94 0 47 47 0 0 1-94 0zm-1 1212a47 47 0 1 1 94 0 47 47 0 0 1-94 0zm0-220a47 47 0 1 1 94 0 47 47 0 0 1-94 0zm0-334.5c0-25.7 21-46.5 47-46.5s47 20.8 47 46.5-21 46.5-47 46.5-47-20.8-47-46.5zm0-331.5a47 47 0 1 1 94 0 47 47 0 0 1-94 0zm2-107a47 47 0 1 1 94 0 47 47 0 0 1-94 0zm-2-111a47 47 0 1 1 94 0 47 47 0 0 1-94 0zm0-218a47 47 0 1 1 94 0 47 47 0 0 1-94 0zm-110 1322a47 47 0 1 1 94 0 47 47 0 0 1-94 0zm0-220a47 47 0 1 1 94 0 47 47 0 0 1-94 0zm4-220a47 47 0 1 1 94 0 47 47 0 0 1-94 0zm-4-220a47 47 0 1 1 94 0 47 47 0 0 1-94 0zm0-226a47 47 0 1 1 94 0 47 47 0 0 1-94 0zm0-218a47 47 0 1 1 94 0 47 47 0 0 1-94 0zm0-218a47 47 0 1 1 94 0 47 47 0 0 1-94 0zm-113 1322a47 47 0 1 1 94 0 47 47 0 0 1-94 0zm0-111a47 47 0 1 1 94 0 47 47 0 0 1-94 0zm0-443.5c0-25.7 21-46.5 47-46.5s47 20.8 47 46.5-21 46.5-47 46.5-47-20.8-47-46.5zm0-105.5a47 47 0 1 1 94 0 47 47 0 0 1-94 0zm0-662a47 47 0 1 1 94 0 47 47 0 0 1-94 0zm-112 110a47 47 0 1 1 94 0 47 47 0 0 1-94 0zm-1 1101a47 47 0 1 1 94 0 47 47 0 0 1-94 0zm1-219a47 47 0 1 1 94 0 47 47 0 0 1-94 0zm3-110a47 47 0 1 1 94 0 47 47 0 0 1-94 0zm-4-337a47 47 0 1 1 94 0 47 47 0 0 1-94 0zm2-216a47 47 0 1 1 94 0 47 47 0 0 1-94 0zm-108-219a47 47 0 1 1 94 0 47 47 0 0 1-94 0zm-1 992a47 47 0 1 1 94 0 47 47 0 0 1-94 0zm1-110a47 47 0 1 1 94 0 47 47 0 0 1-94 0zm3-110a47 47 0 1 1 94 0 47 47 0 0 1-94 0zm-4-220a47 47 0 1 1 94 0 47 47 0 0 1-94 0zm0-117a47 47 0 1 1 94 0 47 47 0 0 1-94 0zm2-216a47 47 0 1 1 94 0 47 47 0 0 1-94 0zm-2-111a47 47 0 1 1 94 0 47 47 0 0 1-94 0zm0-218a47 47 0 1 1 94 0 47 47 0 0 1-94 0zm-111 1211a47 47 0 1 1 94 0 47 47 0 0 1-94 0zm1-219a47 47 0 1 1 94 0 47 47 0 0 1-94 0zm3-110a47 47 0 1 1 94 0 47 47 0 0 1-94 0zm-4-114.5c0-25.7 21-46.5 47-46.5s47 20.8 47 46.5-21 46.5-47 46.5-47-20.8-47-46.5zm0-105.5a47 47 0 1 1 94 0 47 47 0 0 1-94 0zm0-117a47 47 0 1 1 94 0 47 47 0 0 1-94 0zm2-216a47 47 0 1 1 94 0 47 47 0 0 1-94 0zm-2-111a47 47 0 1 1 94 0 47 47 0 0 1-94 0zm0-218a47 47 0 1 1 94 0 47 47 0 0 1-94 0zm-111 1322a47 47 0 1 1 94 0 47 47 0 0 1-94 0zm1-330a47 47 0 1 1 94 0 47 47 0 0 1-94 0zm-1-447a47 47 0 1 1 94 0 47 47 0 0 1-94 0zm2-216a47 47 0 1 1 94 0 47 47 0 0 1-94 0zm-109 773a47 47 0 1 1 94 0 47 47 0 0 1-94 0zm0-440a47 47 0 1 1 94 0 47 47 0 0 1-94 0zm0-117a47 47 0 1 1 94 0 47 47 0 0 1-94 0zm0-109a47 47 0 1 1 94 0 47 47 0 0 1-94 0zm2-107a47 47 0 1 1 94 0 47 47 0 0 1-94 0zm-2-111a47 47 0 1 1 94 0 47 47 0 0 1-94 0zm0-218a47 47 0 1 1 94 0 47 47 0 0 1-94 0zm218 0a47 47 0 1 1 94 0 47 47 0 0 1-94 0zm-227 1878c0-210.4 170.8-381 381.5-381s381.5 170.6 381.5 381-170.8 381-381.5 381-381.5-170.6-381.5-381zm115.2 0A266 266 0 0 0-1901 670.3a266 266 0 0 0 266.3-265.8A266 266 0 0 0-1901 138.7a266 266 0 0 0-266.3 265.8zm2315.8-2433a381 381 0 1 1 762 0 381 381 0 0 1-762 0zm115.2 0a265.8 265.8 0 1 0 531.6 0 265.8 265.8 0 0 0-531.6 0zm-2546.2 0c0-210.4 170.8-381 381.5-381s381.5 170.6 381.5 381-170.8 381-381.5 381-381.5-170.6-381.5-381zm115.2 0a266 266 0 0 0 266.3 265.8 266 266 0 0 0 266.3-265.8 266 266 0 0 0-266.3-265.8 266 266 0 0 0-266.3 265.8zM-2034.5 404a133.5 133.5 0 1 1 267 0 133.5 133.5 0 0 1-267 0zm2430-2432a133.5 133.5 0 1 1 267 0 133.5 133.5 0 0 1-267 0zm-2430 0a133.5 133.5 0 1 1 267 0 133.5 133.5 0 0 1-267 0z"/>
  </g>
</svg>
