<?xml version="1.0" encoding="UTF-8" standalone="no"?>
<svg
   width="600pt"
   height="600pt"
   viewBox="0 0 600 600"
   version="1.1"
   id="svg866"
   sodipodi:docname="31fix2 - 副本.svg"
   inkscape:version="1.1.2 (b8e25be833, 2022-02-05)"
   xmlns:inkscape="http://www.inkscape.org/namespaces/inkscape"
   xmlns:sodipodi="http://sodipodi.sourceforge.net/DTD/sodipodi-0.dtd"
   xmlns="http://www.w3.org/2000/svg"
   xmlns:svg="http://www.w3.org/2000/svg">
  <path
     d="M 8,0 A 8,8 0 1 0 8,16 8,8 0 0 0 8,0 M 1,8 A 7,7 0 0 1 8,1 3.5,3.5 0 1 1 8,8 3.5,3.5 0 1 0 8,15 7,7 0 0 1 1,8 m 7,4.7 a 1.2,1.2 0 1 1 0,-2.4 1.2,1.2 0 0 1 0,2.4"
     style="fill:#939393"
     transform="matrix(31.29636,0,0,31.5862,63.9,50.1)"
     id="path852" />
  <path
     d="m 349.7,1237 a 56.3,56.3 0 0 1 -34.8,-51.3 56,56 0 0 1 55.3,-55.4 c 4.5,0 7.3,0.7 12.2,3.1 a 27.2,27.2 0 0 1 -0.2,48.9 55,55 0 0 1 -12.1,3 c -10.6,1.5 -14.7,3.3 -19.9,8.4 -5.6,5.6 -8,11.6 -8,20.2 0,9 2.8,15.3 9.4,21 5.1,4.6 4.9,4.9 -2,2.2 z m 29.9,-81.6 c -0.3,-3.1 -5.8,-7.7 -9.3,-7.7 -3.6,0 -9,4.6 -9.3,7.7 -0.7,7.6 2.6,11.8 9.3,11.8 7.2,0 9.7,-6.6 9.3,-11.8 z"
     style="fill:#fefefe;stroke:#fefefe;stroke-width:2.32596"
     transform="matrix(3.91204,0,0,3.94827,-1134.3,-4378.6)"
     id="path854" />
  <path
     d="m 366.4,1241.5 h -1 c -3,-0.3 -6.6,-1 -9.5,-1.7 h -0.2 l 0.2,-0.2 0.4,-0.8 v -0.8 l 0.4,0.2 a 28.5,28.5 0 0 0 9.7,3.3 z"
     style="fill:#fefefe"
     transform="matrix(3.91204,0,0,3.94827,-1134.3,-4378.6)"
     id="path856" />
  <path
     d="M 9.2,11.5 A 1.2,1.2 0 0 1 8,12.7 1.2,1.2 0 0 1 6.8,11.5 1.2,1.2 0 0 1 8,10.3 1.2,1.2 0 0 1 9.2,11.5 Z"
     style="fill:#fefefe;stroke:#939393;stroke-width:0.481542"
     transform="matrix(31.29636,0,0,31.5862,63.9,50.1)"
     id="path858" />
  <path
     d="M 9.2,4.5 A 1.2,1.2 0 0 1 8,5.7 1.2,1.2 0 0 1 6.8,4.5 1.2,1.2 0 0 1 8,3.3 1.2,1.2 0 0 1 9.2,4.5 Z"
     style="fill:#939393;stroke:#fefefe;stroke-width:0.481542"
     transform="matrix(31.29636,0,0,31.5862,63.9,50.1)"
     id="path860" />
  <path
     d="M 312.7,549.1 A 246.7,246.7 0 0 1 67.8,300.6 246.7,246.7 0 0 1 315.8,55.3 c 136.2,0.8 246,112 245.2,248.3 A 246.7,246.7 0 0 1 313,549.2 Z"
     style="fill-opacity:0;stroke:#000000;stroke-width:17.036"
     id="path862" />
  <path
     d="m 230.8,401 211.4,-123 2.2,97.2 -130.1,75 -83.5,-49.1 m 46,0 37.5,22.4 107.6,-61.5 -1.1,-44.8 z m 30.9,-243.3 c 3,-1.7 6.4,-4.3 10,-2.8 l 82.4,47.1 -214.5,125 -0.8,-93.9 c -0.7,-5 8,-9.3 8,-9.3 l 114.9,-66.1 m -99.7,84.5 0.7,45 145.6,-84 -39.8,-22.5 z M 302.2,74.6 h 24.3 l 0.4,30.8 c 10.6,-7 17,-18.7 23.6,-29.3 l 22.3,10.2 c -7.4,16.8 -21.3,28.5 -31.4,40.3 l 138.4,79.3 V 397 l -136.3,79.5 c 10.5,11.2 22.9,27.2 28.6,40.2 l -22.2,9.4 a 91.1,91.1 0 0 0 -23.2,-28 l -0.5,31 h -24 l -0.4,-31 c -11.3,9 -17,18.3 -24.4,29.6 L 257.2,517 c 5.2,-16.3 18.4,-28.3 30,-40 -50,-28.3 -93,-53.6 -138.5,-79.2 V 205.7 L 287.3,126 c -9.2,-10.4 -20,-19.5 -27,-31.8 l -3.1,-7 20.7,-10.8 a 127,127 0 0 0 23.6,29.4 l 0.7,-31.2 m 5.1,68.8 -126.6,72.4 c -3.3,1.9 -8,3.8 -7,8.5 l -0.4,123.3 249.5,-145.3 -90.7,-52.8 c -7.4,-4 -16.5,-12.9 -24.8,-6.1 M 175.7,375.6 c -5.8,2.3 -1.3,11.6 4.2,9.7 l 274.7,-157 c 0.9,-4.4 0,-11.6 -6,-10.7 M 206.3,399.4 c -0.9,0.6 -2.5,1.1 -1.2,2.2 l 101.4,58.6 c 3.3,1.8 7.2,5.6 11,2.4 L 455,383 454.8,257.2 Z"
     class="path"
     id="path864" />
</svg>
